<?xml version="1.0" encoding="UTF-8" standalone="no"?>
<!DOCTYPE svg PUBLIC "-//W3C//DTD SVG 1.1//EN" "http://www.w3.org/Graphics/SVG/1.1/DTD/svg11.dtd">
<svg width="100%" height="100%" viewBox="0 0 240 120" version="1.1" xmlns="http://www.w3.org/2000/svg" xmlns:xlink="http://www.w3.org/1999/xlink" xml:space="preserve" xmlns:serif="http://www.serif.com/" style="fill-rule:evenodd;clip-rule:evenodd;stroke-linejoin:round;stroke-miterlimit:2;">
    <g transform="matrix(1,0,0,1,-1600,-20)">
        <g id="Local_ToD_ring">
            <path id="Local_ToD_ring1" serif:id="Local_ToD_ring" d="M1726.23,42.217L1726.86,42.265L1729.11,45.378C1734.07,45.855 1738.98,46.721 1743.8,47.968L1747.01,45.8L1747.13,45.834L1753.52,47.91L1759.78,50.441L1759.86,50.477L1760.92,54.2C1765.42,56.344 1769.74,58.838 1773.84,61.659L1777.58,60.721L1777.87,60.927L1782.77,64.752L1783.55,65.431L1787.4,68.898L1788.07,69.538L1787.8,73.372C1791.29,76.923 1794.5,80.744 1797.39,84.798L1801.25,85.199L1804.7,90.724L1805.04,91.318L1808.08,97.04L1806.5,100.579C1808.57,105.111 1810.27,109.798 1811.6,114.596L1815.09,116.292L1816.42,122.567L1816.56,123.354L1817.46,129.756L1814.77,132.542C1814.96,135.024 1815.06,137.512 1815.06,140L1813,140C1813,88.672 1771.33,47 1720,47C1668.67,47 1627,88.672 1627,140L1627,140L1624.94,140C1624.94,137.512 1625.04,135.024 1625.23,132.542L1622.54,129.756L1623.44,123.354L1623.58,122.567L1624.91,116.292L1628.4,114.596C1629.73,109.798 1631.43,105.111 1633.5,100.579L1631.92,97.04L1634.96,91.318L1635.3,90.724L1638.75,85.199L1642.61,84.798C1645.5,80.744 1648.71,76.923 1652.2,73.372L1651.93,69.538L1652.6,68.898L1656.45,65.431L1657.23,64.752L1662.13,60.927L1662.42,60.721L1666.16,61.659C1670.26,58.838 1674.58,56.344 1679.08,54.2L1680.14,50.477L1680.22,50.441L1686.48,47.91L1692.87,45.834L1692.99,45.8L1696.2,47.968C1701.02,46.721 1705.93,45.855 1710.89,45.378L1713.14,42.265L1713.78,42.217L1720,42L1726.23,42.217Z" style="fill:rgb(247,188,0);"/>
            <rect x="1600" y="20" width="240" height="120" style="fill:none;"/>
        </g>
    </g>
</svg>
