<?xml version="1.0" encoding="UTF-8" standalone="no"?>
<!DOCTYPE svg PUBLIC "-//W3C//DTD SVG 1.1//EN" "http://www.w3.org/Graphics/SVG/1.1/DTD/svg11.dtd">
<svg width="100%" height="100%" viewBox="0 0 240 240" version="1.1" xmlns="http://www.w3.org/2000/svg" xmlns:xlink="http://www.w3.org/1999/xlink" xml:space="preserve" xmlns:serif="http://www.serif.com/" style="fill-rule:evenodd;clip-rule:evenodd;stroke-linejoin:round;stroke-miterlimit:2;">
    <g transform="matrix(1,0,0,1,-1600,-20)">
        <g id="Global_ToD_pointer">
            <path d="M1720,20C1786.23,20 1840,73.77 1840,140C1840,206.23 1786.23,260 1720,260C1653.77,260 1600,206.23 1600,140C1600,73.77 1653.77,20 1720,20ZM1720,26C1782.92,26 1834,77.082 1834,140C1834,202.918 1782.92,254 1720,254C1657.08,254 1606,202.918 1606,140C1606,77.082 1657.08,26 1720,26Z" style="fill:rgb(157,35,35);"/>
            <path d="M1707,25L1733,25L1720,38L1707,25ZM1720,31L1715,26L1725,26L1720,31Z" style="fill:rgb(157,35,35);"/>
        </g>
    </g>
</svg>
