<?xml version="1.0" encoding="UTF-8" standalone="no"?>
<!DOCTYPE svg PUBLIC "-//W3C//DTD SVG 1.1//EN" "http://www.w3.org/Graphics/SVG/1.1/DTD/svg11.dtd">
<svg width="100%" height="100%" viewBox="0 0 40 40" version="1.1" xmlns="http://www.w3.org/2000/svg" xmlns:xlink="http://www.w3.org/1999/xlink" xml:space="preserve" xmlns:serif="http://www.serif.com/" style="fill-rule:evenodd;clip-rule:evenodd;stroke-linejoin:round;stroke-miterlimit:2;">
    <g id="Terrain_icon_shallow_water">
        <path d="M5,26C7,26 10,24 10,24C10,24 13,26 15,26C17,26 20,24 20,24C20,24 23,26 25,26C27,26 30,24 30,24C30,24 33,26 35,26L35,27.14C35,28.203 34.437,29.187 33.521,29.726C30.319,31.61 24.757,34.881 21.521,36.785C20.582,37.337 19.418,37.337 18.479,36.785C15.243,34.881 9.681,31.61 6.479,29.726C5.563,29.187 5,28.203 5,27.14L5,26Z" style="fill:white;"/>
        <g transform="matrix(1,0,0,1,-1650,-100)">
            <rect x="1650" y="100" width="40" height="40" style="fill:none;"/>
        </g>
    </g>
</svg>
