<?xml version="1.0" encoding="UTF-8" standalone="no"?>
<!DOCTYPE svg PUBLIC "-//W3C//DTD SVG 1.1//EN" "http://www.w3.org/Graphics/SVG/1.1/DTD/svg11.dtd">
<svg width="100%" height="100%" viewBox="0 0 78 78" version="1.1" xmlns="http://www.w3.org/2000/svg" xmlns:xlink="http://www.w3.org/1999/xlink" xml:space="preserve" xmlns:serif="http://www.serif.com/" style="fill-rule:evenodd;clip-rule:evenodd;stroke-linejoin:round;stroke-miterlimit:2;">
    <g transform="matrix(1,0,0,1,-1,-1)">
        <g id="ToD_icon_firstwatch">
            <g transform="matrix(1.501,0,0,1,-20.06,26)">
                <rect x="20" y="32" width="40" height="2" style="fill:white;"/>
            </g>
            <path d="M31.75,38.397C29.721,39.422 27.427,40 25,40C16.721,40 10,33.279 10,25C10,16.721 16.721,10 25,10C27.427,10 29.721,10.578 31.75,11.603C26.858,14.075 23.5,19.149 23.5,25C23.5,30.851 26.858,35.925 31.75,38.397Z" style="fill:white;"/>
            <g transform="matrix(0.975,0,0,0.975,1,1)">
                <circle cx="40" cy="40" r="40" style="fill:none;"/>
            </g>
        </g>
    </g>
</svg>
